<svg xmlns="http://www.w3.org/2000/svg" viewBox="0 0 300 300" width="100%" height="100%"><defs><linearGradient id="glass" x1="0" y1="0" x2="1" y2="1"><stop offset="0" stop-color="#EFF4E0" stop-opacity="0.85"/><stop offset="1" stop-color="#D3DCC4" stop-opacity="0.65"/></linearGradient><filter id="glow" x="-60%" y="-60%" width="220%" height="220%"><feGaussianBlur stdDeviation="4" result="b"/><feMerge><feMergeNode in="b"/><feMergeNode in="SourceGraphic"/></feMerge></filter><filter id="shade" x="-30%" y="-30%" width="160%" height="160%"><feGaussianBlur stdDeviation="6"/></filter></defs><ellipse cx="150.0" cy="270.3" rx="124.0" ry="12" fill="#2D5A27" opacity="0.15" filter="url(#shade)"/><polygon points="122.0,47.7 260.0,127.3 178.0,174.6 40.0,95.0" fill="#2D5A27" stroke="none" stroke-width="1" fill-opacity="1"/><polygon points="122.0,125.4 40.0,172.7 40.0,95.0 122.0,47.7" fill="#23451E" stroke="none" stroke-width="1" fill-opacity="1"/><polygon points="122.0,125.4 260.0,205.0 260.0,127.3 122.0,47.7" fill="#2D5A27" stroke="none" stroke-width="1" fill-opacity="1"/><polygon points="122.0,47.7 260.0,127.3 178.0,174.6 40.0,95.0" fill="#3E7A34" stroke="none" stroke-width="1" fill-opacity="0.0"/><polygon points="128.2,128.9 253.8,201.4 253.8,123.8 128.2,51.3" fill="url(#glass)" stroke="none" stroke-width="1" fill-opacity="1"/><polygon points="143.2,128.3 228.7,186.9 228.7,165.2 143.2,106.6" fill="#FFFFFF" stroke="none" stroke-width="1" fill-opacity="0.3"/><polygon points="172.1,128.1 209.8,144.1 209.8,149.9 172.1,149.9" fill="#2D3748" stroke="none" stroke-width="1" fill-opacity="1"/><text x="191.0" y="143.0" fill="#9ACD32" font-family="monospace" font-size="9" font-weight="bold" text-anchor="middle">IOT</text><line x1="122.0" y1="117.6" x2="260.0" y2="197.3" stroke="#9ACD32" stroke-width="4" filter="url(#glow)" stroke-linecap="round"/><rect x="128.2" y="111.2" width="125.6" height="14" rx="7" fill="#1E3F1A" opacity="0.85"/><circle cx="138.2" cy="118.2" r="3" fill="#9ACD32"/><text x="148.2" y="122.2" fill="#9ACD32" font-family="monospace" font-size="8" font-weight="bold">LIBRE</text><line x1="128.2" y1="131.2" x2="154.2" y2="131.2" stroke="#3E7A34" stroke-width="1.4"/><line x1="128.2" y1="135.2" x2="154.2" y2="135.2" stroke="#3E7A34" stroke-width="1.4"/><line x1="128.2" y1="139.2" x2="154.2" y2="139.2" stroke="#3E7A34" stroke-width="1.4"/><line x1="238.7" y1="181.4" x2="238.7" y2="154.9" stroke="#3E7A34" stroke-width="3" stroke-linecap="round"/><polygon points="60.5,98.2 101.5,98.2 101.5,82.6 60.5,82.6" fill="url(#glass)" stroke="none" stroke-width="1" fill-opacity="1"/></svg>